<?xml version="1.0" encoding="utf-8"?>
<!-- Generator: Adobe Illustrator 25.2.1, SVG Export Plug-In . SVG Version: 6.00 Build 0)  -->
<svg version="1.1" id="Livello_1" xmlns="http://www.w3.org/2000/svg" xmlns:xlink="http://www.w3.org/1999/xlink" x="0px" y="0px"
	 viewBox="0 0 458.24 170.08" style="enable-background:new 0 0 458.24 170.08;" xml:space="preserve">
<style type="text/css">
	.st0{fill:#FFFFFF;}
</style>
<g>
	<g>
		<g>
			<path class="st0" d="M210.53,68.66c-0.95,2.63-1.44,5.61-1.44,8.85v20.03v14c0,0.67,0.45,1.11,1.11,1.11h13.39
				c0.44,0,0.76-0.2,0.94-0.52c0.1-0.16,0.17-0.36,0.17-0.59V95.24V80.51c0-5.68,2.69-9.62,7.94-9.78c5.25,0.16,7.94,4.1,7.94,9.78
				v14.73v16.29c0,0.23,0.08,0.43,0.18,0.59c0.18,0.32,0.51,0.52,0.95,0.52h13.39c0.67,0,1.11-0.45,1.11-1.11V97.54V77.51
				c0-3.25-0.5-6.24-1.45-8.87c-2.92-5.78-8.21-9.58-14.88-11.13c-2.26-0.52-4.67-0.81-7.22-0.81c-2.55,0-4.96,0.29-7.22,0.81
				C218.74,59.06,213.45,62.86,210.53,68.66 M95.83,68.46c0.56-0.45,0.56-1.01,0.22-1.57c-3.9-5.94-11.16-10.2-20.42-10.2
				c-11.38,0-20.08,5.27-23.32,15.35c-1.11,3.25-1.67,7.28-1.67,13c0,5.71,0.56,9.75,1.67,12.99c3.24,10.09,11.93,15.35,23.32,15.35
				c9.26,0,16.52-4.25,20.42-10.19c0.34-0.56,0.34-1.12-0.22-1.56l-9.71-6.39c-0.67-0.45-1.23-0.34-1.67,0.23
				c-2.35,3.24-4.69,4.7-8.59,4.7c-4.12,0-7.14-1.9-8.36-5.83c-0.78-2.24-1-4.82-1-9.3s0.22-7.06,1-9.3
				c1.23-3.92,4.25-5.82,8.36-5.82c3.91,0,6.25,1.46,8.59,4.71c0.44,0.56,1,0.68,1.67,0.22L95.83,68.46z M133.96,85.05
				c0,4.59-0.23,6.83-1,9.3c-1.23,3.81-4.24,5.83-8.37,5.83c-4.13,0-7.14-2.02-8.36-5.83c-0.78-2.47-1.01-4.71-1.01-9.3
				c0-4.59,0.23-6.83,1.01-9.3c1.22-3.81,4.23-5.82,8.36-5.82c4.13,0,7.14,2.02,8.37,5.82C133.74,78.21,133.96,80.45,133.96,85.05
				 M148.02,98.15c1.23-3.92,1.79-7.73,1.79-13.11c0-5.38-0.56-9.19-1.79-13.11c-3.12-9.86-12.04-15.24-23.42-15.24
				s-20.3,5.38-23.42,15.24c-1.23,3.92-1.79,7.73-1.79,13.11c0,5.38,0.56,9.19,1.79,13.11c3.12,9.86,12.04,15.23,23.42,15.23
				S144.89,108.01,148.02,98.15 M156.42,68.66c-0.95,2.63-1.45,5.61-1.45,8.85v20.03v14c0,0.67,0.45,1.11,1.11,1.11h13.39
				c0.43,0,0.76-0.2,0.94-0.52c0.1-0.16,0.17-0.36,0.17-0.59V95.24V80.51c0-5.68,2.69-9.62,7.93-9.78c5.25,0.16,7.94,4.1,7.94,9.78
				v14.73l0,16.29c0,0.23,0.07,0.43,0.18,0.59c0.19,0.32,0.51,0.52,0.94,0.52h13.39c0.67,0,1.12-0.45,1.12-1.11V97.54V77.51
				c0-3.25-0.49-6.24-1.45-8.87c-2.92-5.78-8.2-9.58-14.88-11.13c-2.26-0.52-4.67-0.81-7.22-0.81c-2.54,0-4.96,0.29-7.22,0.81
				C164.62,59.06,159.34,62.86,156.42,68.66 M296.54,78.66c0,0.45-0.23,0.67-0.68,0.67h-17.85c-0.44,0-0.67-0.23-0.67-0.67
				c0-1.68,0.23-2.92,0.56-4.03c1.23-3.7,4.57-5.93,9.03-5.93c4.46,0,7.81,2.24,9.03,5.93C296.32,75.74,296.54,76.98,296.54,78.66
				 M311.93,88.63c0-9.19-0.67-13.11-1.79-16.7c-3.12-9.52-11.37-15.24-23.31-15.24c-11.49,0-20.08,5.61-23.21,15.35
				c-1.11,3.36-1.78,7.28-1.78,13c0,5.6,0.78,9.52,1.9,12.88c3.13,9.75,11.6,15.46,23.88,15.46c9.93,0,17.84-3.58,22.98-9.07
				c0.45-0.45,0.45-1.12-0.12-1.56l-7.36-6.95c-0.45-0.56-1-0.45-1.56,0c-3.13,2.9-7.03,4.81-12.39,4.81
				c-5.57,0-9.7-2.46-11.16-7.17c-0.33-0.9-0.56-1.91-0.67-3.03c0-0.45,0.23-0.67,0.67-0.67h32.69
				C311.49,89.75,311.93,89.3,311.93,88.63 M332.86,73.2c0-2.68,2.24-4.48,6.83-4.48c5.59,0,10.96,2.02,14.66,4.37
				c0.56,0.33,1.12,0.33,1.57-0.22l6.27-7.72c0.44-0.56,0.33-1.23-0.12-1.68c-5.03-3.81-12.75-6.71-21.93-6.71
				c-14.1,0-22.27,6.71-22.27,17.34c0,9.73,6.27,15.44,17.68,16.56l6.04,0.67c6.27,0.56,7.73,2.13,7.73,4.71
				c0,3.02-2.69,5.15-8.4,5.15c-5.59,0-11.75-2.24-16.56-5.93c-0.56-0.45-1.12-0.45-1.57,0l-7.27,8.17c-0.44,0.45-0.44,1.12,0,1.57
				c5.15,4.47,13.32,8.4,24.62,8.4c15.45,0,24.06-7.5,24.18-18.58c0-9.06-5.26-15.22-18.01-16.45l-5.94-0.67
				C334.2,77.12,332.86,75.67,332.86,73.2 M386.67,111.53V97.54v-10.7v-3.71v-10.7V58.45c0-0.67-0.45-1.12-1.12-1.12h-13.39
				c-0.43,0-0.76,0.21-0.94,0.52c-0.11,0.17-0.18,0.37-0.18,0.6v16.29v8.4v3.71v8.4v16.28c0,0.24,0.07,0.44,0.18,0.6
				c0.18,0.32,0.51,0.52,0.94,0.52h13.39C386.22,112.65,386.67,112.2,386.67,111.53"/>
		</g>
		<g>
			<path class="st0" d="M401.1,64.46c0,0.7-0.58,1.32-1.86,1.32h-1.89v-3.29h1.89c1.28,0,1.86,0.6,1.86,1.35V64.46z M402.83,64.54
				v-0.81c0-1.2-0.65-2.55-3.4-2.55h-3.38c-0.28,0-0.37,0.14-0.37,0.39v8.44c0,0.25,0.09,0.37,0.33,0.37h1
				c0.27,0,0.35-0.13,0.35-0.37v-2.97h2.07h0.1l1.27,2.97c0.08,0.25,0.14,0.37,0.39,0.37h1c0.28,0,0.4-0.17,0.34-0.37l-1.34-3.21
				C402.46,66.39,402.83,65.43,402.83,64.54"/>
			<path class="st0" d="M398.99,58.48c-3.88,0-7.05,3.2-7.05,7.14s3.16,7.14,7.05,7.14s7.05-3.2,7.05-7.14
				S402.87,58.48,398.99,58.48 M398.99,74.54c-4.87,0-8.83-4.01-8.83-8.93c0-4.92,3.96-8.93,8.83-8.93s8.83,4.01,8.83,8.93
				C407.82,70.54,403.86,74.54,398.99,74.54"/>
		</g>
	</g>
</g>
</svg>
