<svg id="icons" xmlns="http://www.w3.org/2000/svg" viewBox="0 0 100 100"><defs><style>.cls-1{fill:none;stroke:#00a3e0;stroke-miterlimit:10;stroke-width:4px;}.cls-2{fill:#909090;}.cls-3{fill:#fff;}</style></defs><title>dhcp</title><g id="dhcp"><circle class="cls-1" cx="50.168" cy="50" r="34.832"/><ellipse class="cls-1" cx="50.168" cy="50" rx="18.213" ry="34.832"/><line class="cls-1" x1="15" y1="50" x2="85" y2="50"/><line class="cls-1" x1="50" y1="15" x2="50" y2="85"/><path class="cls-1" d="M50.168,84.832A34.779,34.779,0,0,0,78.316,70.509c-6.335-3.444-16.58-5.684-28.148-5.684s-21.813,2.24-28.147,5.684A34.775,34.775,0,0,0,50.168,84.832Z"/><path class="cls-1" d="M78.316,29.491a34.819,34.819,0,0,0-56.295,0c6.334,3.444,16.579,5.684,28.147,5.684S71.981,32.935,78.316,29.491Z"/><rect class="cls-2" x="29.391" y="38.414" width="59.634" height="23.172" rx="4"/><path class="cls-3" d="M34.842,57.375V41.586h4.175a5.746,5.746,0,0,1,4.408,1.757A6.886,6.886,0,0,1,45.1,48.158v2.559A6.912,6.912,0,0,1,43.458,55.6a5.87,5.87,0,0,1-4.527,1.773ZM38.03,44.243V54.729h.955a2.671,2.671,0,0,0,2.244-.841,4.991,4.991,0,0,0,.683-2.9V48.244a5.61,5.61,0,0,0-.618-3.085,2.494,2.494,0,0,0-2.1-.916Z"/><path class="cls-3" d="M58.46,57.375H55.283V50.619H50.577v6.756H47.388V41.586h3.189v6.387h4.706V41.586H58.46Z"/><path class="cls-3" d="M71.721,52.115A5.9,5.9,0,0,1,70.2,56.2a5.358,5.358,0,0,1-3.947,1.388,4.973,4.973,0,0,1-4.1-1.762A7.8,7.8,0,0,1,60.726,50.8V48.147A7.606,7.606,0,0,1,62.2,43.132a5.831,5.831,0,0,1,8.019-.32,6.561,6.561,0,0,1,1.523,4.142h-3.2a4.248,4.248,0,0,0-.515-2.3,2.031,2.031,0,0,0-1.729-.635,1.935,1.935,0,0,0-1.811.895,6.262,6.262,0,0,0-.564,2.944v2.982a6.872,6.872,0,0,0,.526,3.231,1.93,1.93,0,0,0,1.805.879,2.088,2.088,0,0,0,1.735-.613,4.034,4.034,0,0,0,.542-2.218Z"/><path class="cls-3" d="M76.872,51.823v5.552H73.684V41.586h5.379A4.936,4.936,0,0,1,82.8,43.039a5.227,5.227,0,0,1,1.394,3.774,4.883,4.883,0,0,1-1.378,3.665A5.232,5.232,0,0,1,79,51.823Zm0-2.657h2.191a1.735,1.735,0,0,0,1.409-.6,2.639,2.639,0,0,0,.5-1.735,3.131,3.131,0,0,0-.51-1.882,1.633,1.633,0,0,0-1.366-.71H76.872Z"/></g></svg>