<?xml version="1.0" encoding="UTF-8"?> <!-- Generator: Adobe Illustrator 25.2.0, SVG Export Plug-In . SVG Version: 6.00 Build 0) --> <svg xmlns="http://www.w3.org/2000/svg" xmlns:xlink="http://www.w3.org/1999/xlink" version="1.1" id="Livello_1" x="0px" y="0px" viewBox="0 0 600 600" style="enable-background:new 0 0 600 600;" xml:space="preserve"> <style type="text/css"> .st0{fill:none;stroke:#333333;stroke-width:13;stroke-linecap:round;stroke-miterlimit:10;} .st1{fill:#F70B60;stroke:#333333;stroke-width:13;stroke-linecap:round;stroke-linejoin:round;stroke-miterlimit:10;} </style> <g> <g> <path class="st0" d="M273.7,426.5"></path> <path class="st0" d="M326.3,426.5"></path> <path class="st0" d="M491.6,230.9l41.5,41.5c14.5,14.5,14.5,38.1,0,52.7l-60.1,60c-14.5,14.5-38.1,14.5-52.7,0l0,0 c-14.5-14.5-38.1-14.5-52.7,0"></path> <polyline class="st0" points="273.7,426.5 232.3,385.1 232.3,385.1 "></polyline> <path class="st0" d="M218.4,173.5c-14.5-14.5-38.1-14.5-52.7,0l-98.8,98.8c-14.5,14.5-14.5,38.1,0,52.7"></path> <path class="st0" d="M232.3,385.1c-14.5-14.5-38.1-14.5-52.7,0l0,0c-14.5,14.5-38.1,14.5-52.7,0l-36.8-36.8"></path> <polyline class="st0" points="491.6,230.9 491.6,230.9 522,261.3 "></polyline> <line class="st0" x1="218.4" y1="173.5" x2="273.7" y2="228.8"></line> </g> <path class="st1" d="M379.8,373c-15.6,15.6-41,15.6-56.7,0L173,222.9c-15.6-15.6-41-15.6-56.7,0l-37.7,37.7l-11.7,11.7 c-14.5,14.5-14.5,38.1,0,52.7l23.3,23.3l24.3-24.3c15.6-15.6,41-15.6,56.7,0l61.1,61.1l41.3,41.3c14.5,14.5,38.1,14.5,52.7,0 L379.8,373L379.8,373z"></path> <path class="st0" d="M509.7,348.4L485.4,324c-15.6-15.6-41-15.6-56.7,0"></path> <path class="st0" d="M428.7,324l-49,49"></path> <path class="st1" d="M491.6,230.9l-57.3-57.3c-14.5-14.5-38.1-14.5-52.7,0l-55.3,55.3c-14.5,14.5-38.1,14.5-52.7,0l53.3,53.3 c15.6,15.6,41,15.6,56.7,0l51.3-51.3C450.6,215.2,475.9,215.2,491.6,230.9z"></path> </g> </svg> 