<svg version="1.1" id="Layer_1" xmlns="http://www.w3.org/2000/svg" xmlns:xlink="http://www.w3.org/1999/xlink" x="0px" y="0px"
	 width="100%" viewBox="0 0 232 217" enable-background="new 0 0 232 217" xml:space="preserve">
<path fill="#4E4E4E" opacity="1.000000" stroke="none" 
	d="
M134.000000,218.000000 
	C89.333336,218.000000 45.166672,218.000000 1.000006,218.000000 
	C1.000004,145.666672 1.000004,73.333344 1.000002,1.000016 
	C78.333321,1.000010 155.666641,1.000010 232.999969,1.000005 
	C232.999985,73.333321 232.999985,145.666641 233.000000,217.999969 
	C200.166672,218.000000 167.333328,218.000000 134.000000,218.000000 
M154.127274,132.094162 
	C154.127274,132.094162 154.140457,132.065430 154.555481,131.541061 
	C154.591339,130.671600 154.627213,129.802139 154.731689,128.200348 
	C155.235764,126.878136 155.739838,125.555916 156.185638,124.386581 
	C161.892838,124.992027 158.854553,129.849686 160.928772,132.729172 
	C162.447784,132.482529 164.157486,132.204926 166.427124,131.599075 
	C167.310211,129.034821 168.193314,126.470551 169.204895,124.625938 
	C169.500946,126.056465 169.796982,127.487000 170.134125,129.592865 
	C171.034943,130.427887 171.935745,131.262894 172.896164,132.089478 
	C172.896164,132.089478 172.928574,132.140198 172.745178,132.655487 
	C169.028290,133.626236 169.127777,136.363037 169.719070,139.583466 
	C170.642731,139.236404 171.540451,138.899109 173.102966,138.769119 
	C182.757156,142.340225 187.910660,138.799026 187.814651,128.668701 
	C187.789505,126.016479 187.667068,123.356735 187.817245,120.713394 
	C188.008484,117.347588 187.068863,115.670883 183.260025,116.413528 
	C181.820908,116.694122 180.179657,115.937958 178.487946,114.874916 
	C176.270828,111.513496 176.537415,108.368210 179.173691,105.317619 
	C180.254669,104.066742 181.776337,102.686882 181.908920,101.255577 
	C182.073807,99.475609 181.586761,96.817490 180.359482,95.888687 
	C177.379715,93.633553 170.745651,95.168739 168.725708,98.337051 
	C166.955322,101.113930 165.691406,104.213707 163.761703,107.517410 
	C163.219193,107.628616 162.676697,107.739815 162.044724,106.940475 
	C161.978409,99.796379 162.108749,92.641220 161.708298,85.515907 
	C161.607468,83.721703 159.807220,82.023003 158.014160,80.060715 
	C156.422424,79.877899 154.830673,79.695084 152.964249,79.145370 
	C152.301620,79.414856 151.638977,79.684349 150.518250,80.550835 
	C149.867661,82.713776 148.687851,84.869308 148.657471,87.040932 
	C148.520782,96.808968 148.710358,106.581581 148.659042,116.812424 
	C148.490479,117.424782 148.321915,118.037140 148.010132,119.359955 
	C147.725754,120.244774 147.441376,121.129593 146.337433,122.040955 
	C145.790665,122.053795 145.243912,122.066635 144.634109,121.463646 
	C144.627762,121.051010 144.621414,120.638374 144.800201,119.492462 
	C144.167831,117.973961 143.535461,116.455460 143.219498,114.319412 
	C143.575897,112.845116 143.932297,111.370827 144.288712,109.896538 
	C142.478378,109.605942 140.668045,109.315338 138.670425,108.132164 
	C138.543762,107.541061 138.417099,106.949959 138.518204,105.644112 
	C137.335373,104.105446 136.152542,102.566788 134.538193,100.661934 
	C134.007355,100.126205 133.476517,99.590469 132.769531,98.383011 
	C126.957283,93.239571 117.785583,92.690071 112.778816,97.375160 
	C112.778816,97.375160 112.331818,97.511360 111.628983,97.429901 
	C109.880165,99.386635 108.131355,101.343376 106.108269,103.774933 
	C105.940643,104.099617 105.773018,104.424309 105.025299,105.147064 
	C101.862602,110.608879 102.640266,116.247330 107.507225,120.349663 
	C108.368782,121.203560 109.230347,122.057457 110.267197,123.508408 
	C110.957069,123.817490 111.646950,124.126564 112.936371,124.685852 
	C113.547539,124.904503 114.158707,125.123146 115.081841,125.877838 
	C115.604401,126.208061 116.126961,126.538277 116.789879,127.396309 
	C116.790070,127.578362 116.790253,127.760414 116.697342,127.998177 
	C116.697342,127.998177 116.780716,128.135651 116.913956,129.078110 
	C116.913467,131.570541 116.641663,134.105698 117.024597,136.537750 
	C117.222221,137.792877 118.583420,138.864807 119.418884,140.019501 
	C120.532387,138.910797 121.913841,137.957001 122.673164,136.643539 
	C123.262550,135.624023 123.075287,134.155518 123.256584,132.699020 
	C124.218643,132.766083 124.859146,132.762177 125.483147,132.861710 
	C131.944199,133.892303 134.682678,131.604904 134.973969,125.058273 
	C135.045746,123.445351 135.469009,121.848061 136.358063,119.775688 
	C136.587997,119.652725 136.817947,119.529770 137.355026,120.073181 
	C137.751129,120.336761 138.147247,120.600334 138.554153,121.756752 
	C138.571609,124.118713 138.589081,126.480675 138.456970,129.501038 
	C138.468201,129.725815 138.479416,129.950607 138.366089,130.704193 
	C138.313751,130.877563 138.261429,131.050934 137.894379,131.248871 
	C137.894379,131.248871 137.806519,131.617233 137.806519,131.617233 
	C137.806519,131.617233 138.220276,131.750229 138.181839,131.798325 
	C138.181839,131.798325 138.243393,131.797852 138.427185,132.494141 
	C141.553772,135.111496 143.426361,134.018677 145.073029,130.643097 
	C145.628662,129.504089 147.484497,128.999359 148.740234,129.001266 
	C148.566742,131.811432 150.029938,132.857162 152.902344,132.923706 
	C153.305786,132.656540 153.709244,132.389389 154.127274,132.094162 
M218.987320,120.333611 
	C218.987320,120.333611 218.903275,120.302292 218.230209,119.896179 
	C217.205338,119.701180 216.180450,119.506180 214.894119,118.946579 
	C214.258713,119.290596 213.623291,119.634613 212.519409,120.319885 
	C212.025085,120.621902 211.530762,120.923912 210.226913,121.014702 
	C208.574661,120.864029 206.922394,120.713348 205.280090,120.520775 
	C205.280090,120.520775 205.247986,120.492119 205.286026,119.985153 
	C205.186646,119.661461 205.087265,119.337769 204.993057,118.264725 
	C204.490402,117.176384 203.987747,116.088043 203.512299,114.310524 
	C203.554611,114.084541 203.596909,113.858566 204.491058,113.475410 
	C209.618301,113.296410 214.744568,113.079575 219.873032,112.947731 
	C226.699600,112.772232 228.862762,109.297020 225.467972,103.270668 
	C221.667328,96.523872 215.334274,94.042435 207.904587,94.132988 
	C200.677734,94.221069 195.094116,97.601692 191.592804,103.793121 
	C188.733566,108.849190 189.698898,115.351738 193.543594,119.397461 
	C194.675598,120.442062 195.807602,121.486656 197.022263,123.187172 
	C202.182297,128.961212 213.347839,129.846451 218.094376,124.698082 
	C218.094376,124.698082 218.317078,124.666199 219.106720,124.709930 
	C220.296509,123.565315 221.680740,122.546463 222.553619,121.196877 
	C222.804489,120.808983 221.579910,119.466797 221.031845,118.562149 
	C220.352325,119.182465 219.672821,119.802788 218.987320,120.333611 
M53.575657,112.536392 
	C53.603275,111.871559 53.583755,111.200806 53.666515,110.542908 
	C54.063755,107.385056 54.912239,104.328323 58.855793,104.528854 
	C62.566505,104.717545 63.077953,107.780220 63.210423,110.727516 
	C63.344795,113.717102 63.391174,116.717552 63.305511,119.708351 
	C63.203789,123.259850 64.836334,124.900528 68.353233,125.000801 
	C71.844589,125.100334 73.681221,123.648605 73.676582,120.042305 
	C73.672523,116.882812 73.569122,113.705009 73.865402,110.568909 
	C74.143761,107.622375 74.478951,104.008728 78.555519,104.222450 
	C82.173859,104.412155 83.303207,107.396065 83.361275,110.703819 
	C83.416756,113.864365 83.475533,117.025940 83.452026,120.186462 
	C83.426712,123.588768 85.196953,124.886276 88.436646,124.952225 
	C91.819359,125.021095 93.995987,123.831032 94.020576,120.193909 
	C94.055435,115.038582 94.122459,109.873070 93.846199,104.729607 
	C93.653740,101.146172 92.638649,97.694382 88.628395,96.443741 
	C84.719421,95.224686 81.230186,96.275558 78.817825,99.502342 
	C75.972290,103.308525 73.919083,102.106941 71.348991,99.205017 
	C67.823288,95.224075 64.395012,94.715134 60.431019,97.908348 
	C57.344475,100.394714 55.138134,101.013367 51.878765,98.061943 
	C50.532791,96.843124 47.245754,96.632042 45.459526,97.400002 
	C44.067692,97.998405 42.999077,100.784248 42.890209,102.661957 
	C42.563339,108.299812 42.819653,113.969406 42.764381,119.625801 
	C42.727390,123.411942 44.549561,125.019966 48.277771,125.035797 
	C52.154629,125.052261 53.690495,123.168037 53.545189,119.470375 
	C53.466869,117.477287 53.548492,115.477921 53.575657,112.536392 
M8.137804,120.471352 
	C8.808889,122.239548 8.962507,124.804977 10.242165,125.635574 
	C15.321650,128.932526 26.233685,128.255020 30.569067,124.023758 
	C32.702091,121.941963 34.569721,118.206657 34.287277,115.452415 
	C34.045139,113.091232 30.757084,110.829361 28.453224,108.974174 
	C27.114382,107.896072 24.929220,107.932449 23.376692,107.032799 
	C22.421526,106.479294 21.274754,104.984299 21.430145,104.134399 
	C21.594591,103.234985 23.102505,102.324623 24.206427,101.928391 
	C25.235317,101.559074 26.663309,102.214188 27.630690,101.781425 
	C29.089931,101.128624 30.301413,99.921997 31.618206,98.950768 
	C30.481092,97.698021 29.496199,95.597824 28.176643,95.360802 
	C24.972208,94.785233 21.558992,94.676170 18.326664,95.106331 
	C12.754712,95.847870 8.642787,99.786934 8.277353,103.999641 
	C7.869710,108.698929 10.074958,111.026222 16.533525,113.551788 
	C18.107630,114.167320 19.227915,115.943390 20.556862,117.185860 
	C18.714262,117.868103 16.917681,118.760849 15.016780,119.176407 
	C12.901978,119.638725 10.692167,119.666451 8.137804,120.471352 
z"/>
<path fill="#D9D9D9" opacity="1.000000" stroke="none" 
	d="
M53.566803,113.008888 
	C53.548492,115.477921 53.466869,117.477287 53.545189,119.470375 
	C53.690495,123.168037 52.154629,125.052261 48.277771,125.035797 
	C44.549561,125.019966 42.727390,123.411942 42.764381,119.625801 
	C42.819653,113.969406 42.563339,108.299812 42.890209,102.661957 
	C42.999077,100.784248 44.067692,97.998405 45.459526,97.400002 
	C47.245754,96.632042 50.532791,96.843124 51.878765,98.061943 
	C55.138134,101.013367 57.344475,100.394714 60.431019,97.908348 
	C64.395012,94.715134 67.823288,95.224075 71.348991,99.205017 
	C73.919083,102.106941 75.972290,103.308525 78.817825,99.502342 
	C81.230186,96.275558 84.719421,95.224686 88.628395,96.443741 
	C92.638649,97.694382 93.653740,101.146172 93.846199,104.729607 
	C94.122459,109.873070 94.055435,115.038582 94.020576,120.193909 
	C93.995987,123.831032 91.819359,125.021095 88.436646,124.952225 
	C85.196953,124.886276 83.426712,123.588768 83.452026,120.186462 
	C83.475533,117.025940 83.416756,113.864365 83.361275,110.703819 
	C83.303207,107.396065 82.173859,104.412155 78.555519,104.222450 
	C74.478951,104.008728 74.143761,107.622375 73.865402,110.568909 
	C73.569122,113.705009 73.672523,116.882812 73.676582,120.042305 
	C73.681221,123.648605 71.844589,125.100334 68.353233,125.000801 
	C64.836334,124.900528 63.203789,123.259850 63.305511,119.708351 
	C63.391174,116.717552 63.344795,113.717102 63.210423,110.727516 
	C63.077953,107.780220 62.566505,104.717545 58.855793,104.528854 
	C54.912239,104.328323 54.063755,107.385056 53.666515,110.542908 
	C53.583755,111.200806 53.603275,111.871559 53.566803,113.008888 
M85.611038,98.251892 
	C81.561928,99.196930 80.019432,100.521950 83.525948,104.468674 
	C85.176720,106.326706 85.455757,109.583023 85.899094,112.280869 
	C86.296761,114.700752 85.791550,117.274864 86.237518,119.678345 
	C86.445305,120.798218 87.961113,121.675400 88.884026,122.662590 
	C89.860291,121.743988 91.644630,120.854744 91.679245,119.901932 
	C91.876617,114.469772 92.109955,108.957466 91.343338,103.614105 
	C91.059288,101.634186 88.094353,100.038895 85.611038,98.251892 
M71.152184,111.924080 
	C72.569229,107.088455 72.219780,102.526253 67.901474,99.394592 
	C66.702118,98.524811 64.344025,99.252838 62.517544,99.247826 
	C62.598835,100.651749 62.451412,102.116516 62.805622,103.447830 
	C63.752068,107.005058 65.081635,110.465584 65.922066,114.043671 
	C66.367622,115.940605 65.842247,118.064827 66.282928,119.963982 
	C66.517029,120.972801 67.877548,121.720238 68.729607,122.585663 
	C69.467255,121.653656 70.684196,120.796928 70.844826,119.774277 
	C71.201744,117.502045 71.029510,115.146706 71.152184,111.924080 
z"/>
<path fill="#E87B12" opacity="1.000000" stroke="none" 
	d="
M170.093018,128.917526 
	C169.796982,127.487000 169.500946,126.056465 169.249603,124.029495 
	C169.381287,122.929459 169.468262,122.425865 169.651154,121.604332 
	C169.899536,120.646660 170.052002,120.006920 170.482544,119.153534 
	C172.007675,117.661697 173.254700,116.383514 174.793427,115.317963 
	C176.266937,115.571854 177.448730,115.613113 178.630539,115.654381 
	C180.179657,115.937958 181.820908,116.694122 183.260025,116.413528 
	C187.068863,115.670883 188.008484,117.347588 187.817245,120.713394 
	C187.667068,123.356735 187.789505,126.016479 187.814651,128.668701 
	C187.910660,138.799026 182.757156,142.340225 172.612732,138.351257 
	C171.608322,134.470856 172.120239,134.008118 176.535568,135.380585 
	C179.983124,136.452240 181.473282,135.598984 182.198837,132.140198 
	C178.463913,132.140198 175.696243,132.140198 172.928574,132.140198 
	C172.928574,132.140198 172.896164,132.089478 172.675919,131.861755 
	C171.668121,130.728531 170.880569,129.823029 170.093018,128.917526 
M180.429886,121.313828 
	C179.118744,122.341568 177.807602,123.369301 176.496460,124.397034 
	C176.905701,124.789886 177.314941,125.182732 177.724182,125.575577 
	C178.760071,124.353432 179.795959,123.131287 180.429886,121.313828 
z"/>
<path fill="#8B8B8B" opacity="1.000000" stroke="none" 
	d="
M8.330761,120.177368 
	C10.692167,119.666451 12.901978,119.638725 15.016780,119.176407 
	C16.917681,118.760849 18.714262,117.868103 20.556862,117.185860 
	C19.227915,115.943390 18.107630,114.167320 16.533525,113.551788 
	C10.074958,111.026222 7.869710,108.698929 8.277353,103.999641 
	C8.642787,99.786934 12.754712,95.847870 18.326664,95.106331 
	C21.558992,94.676170 24.972208,94.785233 28.176643,95.360802 
	C29.496199,95.597824 30.481092,97.698021 31.618204,98.950768 
	C30.301413,99.921997 29.089931,101.128624 27.630690,101.781425 
	C26.663309,102.214188 25.235317,101.559074 24.206427,101.928391 
	C23.102505,102.324623 21.594591,103.234985 21.430145,104.134399 
	C21.274754,104.984299 22.421526,106.479294 23.376692,107.032799 
	C24.929220,107.932449 27.114382,107.896072 28.453224,108.974174 
	C30.757084,110.829361 34.045139,113.091232 34.287277,115.452415 
	C34.569721,118.206657 32.702091,121.941963 30.569067,124.023758 
	C26.233685,128.255020 15.321650,128.932526 10.242165,125.635574 
	C8.962507,124.804977 8.808889,122.239548 8.330761,120.177368 
M19.849270,124.778740 
	C20.908798,124.560677 21.968327,124.342621 23.790499,124.197037 
	C28.268614,123.472450 31.753538,121.219208 31.788921,116.452789 
	C31.824436,111.668587 27.716677,111.249878 23.590496,110.404594 
	C21.895018,109.026726 20.199541,107.648857 18.713285,105.413857 
	C18.765947,104.243973 18.818609,103.074081 19.234978,101.495918 
	C19.599134,101.088104 19.963293,100.680290 21.144846,100.175896 
	C23.468962,99.920517 25.793077,99.665131 28.117191,99.409752 
	C28.105112,98.752777 28.093033,98.095810 28.080954,97.438835 
	C25.292309,97.438835 22.503666,97.438835 19.044416,97.496078 
	C18.394444,97.637886 17.522741,97.560730 17.130930,97.957481 
	C14.803462,100.314285 11.126213,102.550934 10.698702,105.267929 
	C10.149478,108.758438 14.152966,110.075470 17.471973,111.257179 
	C19.901436,112.122177 21.838301,114.370697 24.028883,116.668938 
	C24.021362,117.113602 24.013844,117.558273 23.475502,118.291237 
	C23.324802,118.863289 23.174103,119.435333 22.470623,120.215767 
	C22.141884,120.689804 21.813145,121.163849 20.885344,121.679222 
	C20.304476,121.848145 19.723608,122.017067 18.347523,121.978210 
	C16.131680,121.931175 13.915835,121.884132 11.699991,121.837090 
	C11.701558,122.442947 11.594675,123.552803 11.720773,123.579933 
	C14.032407,124.077362 16.371382,124.448547 18.706913,124.832169 
	C18.856874,124.856796 19.025936,124.765137 19.849270,124.778740 
z"/>
<path fill="#EC7F12" opacity="1.000000" stroke="none" 
	d="
M135.730682,120.243584 
	C135.469009,121.848061 135.045746,123.445351 134.973969,125.058273 
	C134.682678,131.604904 131.944199,133.892303 125.483147,132.861710 
	C124.859146,132.762177 124.218643,132.766083 123.256584,132.699020 
	C123.075287,134.155518 123.262550,135.624023 122.673164,136.643539 
	C121.913841,137.957001 120.532387,138.910797 119.418884,140.019501 
	C118.583420,138.864807 117.222221,137.792877 117.024597,136.537750 
	C116.641663,134.105698 116.913467,131.570541 116.884018,128.588440 
	C116.854088,128.098785 116.790443,127.942467 116.790443,127.942467 
	C116.790253,127.760414 116.790070,127.578362 116.774307,126.887527 
	C116.731468,126.046104 116.704208,125.713478 116.764702,125.142937 
	C116.832977,124.407967 116.813492,123.910912 116.883408,122.957573 
	C116.847389,121.011505 116.721977,119.521721 116.763000,117.777687 
	C117.053986,117.137497 117.178520,116.751541 117.684158,116.349518 
	C120.918037,116.067978 123.770798,115.802528 126.991577,115.666473 
	C128.107742,115.853630 128.855911,115.911385 129.905136,116.160583 
	C131.622833,117.119080 133.039474,117.886147 134.484436,118.924225 
	C134.918732,119.544701 135.324707,119.894142 135.730682,120.243584 
M122.385468,123.514923 
	C123.229576,124.623878 124.136841,126.683594 124.903915,126.632637 
	C126.263153,126.542358 127.759453,125.362656 128.735870,124.237450 
	C129.118073,123.797005 128.105133,121.362137 127.979614,121.382591 
	C126.140579,121.682190 124.344170,122.243507 122.385468,123.514923 
z"/>
<path fill="#706F6F" opacity="1.000000" stroke="none" 
	d="
M193.128723,118.906059 
	C189.698898,115.351738 188.733566,108.849190 191.592804,103.793121 
	C195.094116,97.601692 200.677734,94.221069 207.904587,94.132988 
	C215.334274,94.042435 221.667328,96.523872 225.467972,103.270668 
	C228.862762,109.297020 226.699600,112.772232 219.873032,112.947731 
	C214.744568,113.079575 209.618301,113.296410 204.122650,113.212982 
	C204.076645,111.102264 204.399063,109.253960 205.169495,107.326370 
	C209.041885,107.252678 212.463409,107.250572 214.956421,104.214035 
	C215.393341,105.296455 215.540253,106.092056 215.412506,107.050964 
	C215.083466,108.073311 215.029099,108.932350 214.974731,109.791389 
	C215.665939,109.782700 216.357132,109.774002 217.457809,109.819801 
	C219.243362,109.892754 220.619446,109.911209 222.171875,110.109009 
	C222.872070,109.442673 223.395905,108.597000 223.876953,107.433563 
	C223.773819,106.692581 223.713470,106.269356 223.764771,105.570892 
	C221.957047,103.135834 220.037643,100.976006 217.812988,98.673569 
	C216.028137,98.085190 214.548553,97.639412 212.619324,97.100693 
	C208.783890,97.374886 205.398087,97.742012 201.680267,98.226700 
	C198.814423,100.850426 196.280594,103.356606 193.444794,106.083305 
	C193.138107,110.504578 193.133408,114.705315 193.128723,118.906059 
z"/>
<path fill="#EC7F12" opacity="1.000000" stroke="none" 
	d="
M165.867188,131.927338 
	C164.157486,132.204926 162.447784,132.482529 160.928772,132.729172 
	C158.854553,129.849686 161.892838,124.992027 156.185638,124.386581 
	C155.739838,125.555916 155.235764,126.878136 154.539795,128.847321 
	C154.278732,130.351349 154.209595,131.208389 154.140457,132.065430 
	C154.140457,132.065430 154.127274,132.094162 153.749023,132.213501 
	C153.135147,132.435471 152.899490,132.538132 152.663849,132.640793 
	C150.029938,132.857162 148.566742,131.811432 148.839783,128.170578 
	C148.874161,126.167725 148.808990,124.995560 148.749252,123.451279 
	C148.554245,121.602608 148.353806,120.126053 148.153351,118.649498 
	C148.321915,118.037140 148.490479,117.424782 149.097809,116.586761 
	C150.022842,116.246742 150.509094,116.132378 151.321548,116.144211 
	C152.323700,116.450569 152.999649,116.630745 153.576660,116.918549 
	C153.695572,117.244095 153.913422,117.462006 154.597534,117.699020 
	C156.147263,117.112480 157.230759,116.506836 158.637787,115.939224 
	C159.611496,115.936661 160.261642,115.896057 161.242905,116.021484 
	C164.889725,117.291718 166.073975,119.738029 165.981033,123.054398 
	C165.898163,126.010788 165.901764,128.969604 165.867188,131.927338 
M155.988129,122.143181 
	C156.435867,122.123734 156.883606,122.104286 157.331345,122.084839 
	C157.273926,121.737892 157.216492,121.390953 157.159073,121.044006 
	C156.773880,121.189781 156.388702,121.335556 155.988129,122.143181 
z"/>
<path fill="#AAA7A5" opacity="1.000000" stroke="none" 
	d="
M160.911804,115.855453 
	C160.261642,115.896057 159.611496,115.936661 158.633408,115.601730 
	C158.741821,113.650772 159.606201,112.057663 159.541946,110.502914 
	C159.228577,102.918678 158.642517,95.346107 158.206787,87.766312 
	C158.053436,85.098793 158.461502,82.042381 154.439133,82.129868 
	C150.690338,82.211395 151.097137,85.163719 151.079880,87.605446 
	C151.012970,97.076027 151.017456,106.547127 150.995346,116.018021 
	C150.509094,116.132378 150.022842,116.246742 149.159454,116.356819 
	C148.710358,106.581581 148.520782,96.808968 148.657471,87.040932 
	C148.687851,84.869308 149.867661,82.713776 151.136368,80.254738 
	C152.249298,79.809853 152.744125,79.661057 153.238937,79.512260 
	C154.830673,79.695084 156.422424,79.877899 158.508087,80.554893 
	C159.338974,87.955429 159.538818,94.872894 160.096329,101.761398 
	C160.263962,103.832687 161.427094,105.823395 162.134186,107.851013 
	C162.676697,107.739815 163.219193,107.628616 164.305038,107.328499 
	C165.487762,107.054176 166.127151,106.968765 166.770935,107.222244 
	C163.560120,112.762352 168.960037,115.461281 170.204453,119.367188 
	C170.052002,120.006920 169.899536,120.646660 169.383331,121.263008 
	C167.832184,119.432892 166.738785,117.554543 165.431915,115.838783 
	C164.014694,113.978149 162.404160,112.965240 160.911804,115.855453 
z"/>
<path fill="#7D7C7B" opacity="1.000000" stroke="none" 
	d="
M166.766541,106.883354 
	C166.127151,106.968765 165.487762,107.054176 164.526062,107.155212 
	C165.691406,104.213707 166.955322,101.113930 168.725708,98.337051 
	C170.745651,95.168739 177.379715,93.633553 180.359482,95.888687 
	C181.586761,96.817490 182.073807,99.475609 181.908920,101.255577 
	C181.776337,102.686882 180.254669,104.066742 179.173691,105.317619 
	C176.537415,108.368210 176.270828,111.513496 178.559235,115.264648 
	C177.448730,115.613113 176.266937,115.571854 174.792755,114.866920 
	C172.218475,109.096497 175.307144,105.631683 178.511505,101.966400 
	C178.894516,100.549095 178.964691,99.271988 179.034882,97.994888 
	C176.944183,98.125206 174.853485,98.255531 172.473907,98.582764 
	C170.378860,101.480904 168.572708,104.182129 166.766541,106.883354 
z"/>
<path fill="#AAA7A5" opacity="1.000000" stroke="none" 
	d="
M204.721466,107.405663 
	C204.399063,109.253960 204.076645,111.102264 203.696716,113.291580 
	C203.596909,113.858566 203.554611,114.084541 203.397675,114.930405 
	C203.851318,116.704880 204.419601,117.859482 204.987885,119.014084 
	C205.087265,119.337769 205.186646,119.661461 204.883301,120.426895 
	C204.221161,120.985176 203.961731,121.101715 203.434174,120.983292 
	C202.610886,117.954132 201.515610,115.138107 201.627472,112.370880 
	C201.794327,108.243294 202.879181,104.158417 203.391266,100.032745 
	C203.462677,99.457466 202.497574,98.753525 202.012283,98.109146 
	C205.398087,97.742012 208.783890,97.374886 212.603073,97.600510 
	C213.044098,99.218597 213.051743,100.243935 212.799149,101.306366 
	C212.022812,101.249863 211.506729,101.156250 210.782562,100.871536 
	C209.558640,100.854568 208.542816,101.028709 207.210464,101.299370 
	C206.097748,102.124733 205.301544,102.853577 204.281891,103.762909 
	C204.232101,105.053169 204.405762,106.162949 204.600403,107.321503 
	C204.621368,107.370270 204.721466,107.405663 204.721466,107.405663 
z"/>
<path fill="#EC7F12" opacity="1.000000" stroke="none" 
	d="
M138.606552,128.842636 
	C138.589081,126.480675 138.571609,124.118713 138.695374,121.031189 
	C139.665482,119.248474 140.494354,118.191315 141.323212,117.134148 
	C142.420502,118.164673 143.517792,119.195206 144.615051,120.225739 
	C144.621414,120.638374 144.627762,121.051010 144.503937,122.109222 
	C144.249634,124.221275 144.145966,125.689827 143.997299,127.153824 
	C143.644333,130.629486 142.119080,132.675827 138.243393,131.797852 
	C138.243393,131.797852 138.181839,131.798325 138.238159,131.642517 
	C138.294464,131.486710 138.209122,131.224304 138.209122,131.224304 
	C138.261429,131.050934 138.313751,130.877563 138.545563,130.296783 
	C138.685547,129.540466 138.646057,129.191544 138.606552,128.842636 
z"/>
<path fill="#BDBDBD" opacity="1.000000" stroke="none" 
	d="
M203.702316,121.218262 
	C203.961731,121.101715 204.221161,120.985176 204.864288,120.680382 
	C205.247986,120.492119 205.280090,120.520775 205.392548,120.880600 
	C207.354477,123.392159 209.198929,123.634796 211.036438,121.225922 
	C211.530762,120.923912 212.025085,120.621902 213.144012,120.153641 
	C214.230942,119.761993 214.693268,119.536583 215.155579,119.311172 
	C216.180450,119.506180 217.205338,119.701180 218.285202,120.337570 
	C218.089142,121.834900 217.838089,122.890854 217.692657,124.085526 
	C217.913284,124.439598 218.086212,124.586914 218.317078,124.666199 
	C218.317078,124.666199 218.094376,124.698082 217.589386,124.722000 
	C214.661102,125.113602 212.162689,126.033539 209.832489,125.716614 
	C206.525253,125.266808 203.341873,123.906425 200.427185,122.895287 
	C201.733322,122.309715 202.717819,121.763992 203.702316,121.218262 
z"/>
<path fill="#ADACAB" opacity="1.000000" stroke="none" 
	d="
M116.794006,123.413849 
	C116.813492,123.910912 116.832977,124.407967 116.288040,125.108826 
	C115.405708,125.322334 115.087791,125.332062 114.769875,125.341797 
	C114.158707,125.123146 113.547539,124.904503 112.482674,124.327469 
	C111.383286,123.616501 110.737595,123.263931 110.091904,122.911346 
	C109.230347,122.057457 108.368782,121.203560 107.230377,119.761673 
	C106.504143,114.365463 106.054771,109.557228 105.605392,104.749001 
	C105.773018,104.424309 105.940643,104.099617 106.525848,103.475601 
	C107.506966,103.068703 108.070503,102.961143 108.645813,103.240082 
	C104.958275,114.011574 107.458298,120.091476 116.794006,123.413849 
z"/>
<path fill="#7F7A74" opacity="1.000000" stroke="none" 
	d="
M162.089447,107.395752 
	C161.427094,105.823395 160.263962,103.832687 160.096329,101.761398 
	C159.538818,94.872894 159.338974,87.955429 158.894974,80.664749 
	C159.807220,82.023003 161.607468,83.721703 161.708298,85.515907 
	C162.108749,92.641220 161.978409,99.796379 162.089447,107.395752 
z"/>
<path fill="#ADACAB" opacity="1.000000" stroke="none" 
	d="
M132.945679,99.054741 
	C133.476517,99.590469 134.007355,100.126205 134.713531,101.213226 
	C134.841888,102.255592 134.794876,102.746681 134.413696,103.153366 
	C130.110947,101.356354 126.256920,98.719864 122.139305,98.209351 
	C118.532341,97.762138 114.629356,99.702515 110.896851,100.300529 
	C111.401649,99.179016 111.866737,98.345192 112.331818,97.511360 
	C112.331818,97.511360 112.778816,97.375160 113.404320,97.283890 
	C120.618774,94.931801 126.838135,96.425331 132.945679,99.054741 
z"/>
<path fill="#7F5A3A" opacity="1.000000" stroke="none" 
	d="
M172.836884,132.397842 
	C175.696243,132.140198 178.463913,132.140198 182.198837,132.140198 
	C181.473282,135.598984 179.983124,136.452240 176.535568,135.380585 
	C172.120239,134.008118 171.608322,134.470856 172.280334,138.247589 
	C171.540451,138.899109 170.642731,139.236404 169.719070,139.583466 
	C169.127777,136.363037 169.028290,133.626236 172.836884,132.397842 
z"/>
<path fill="#706F6F" opacity="1.000000" stroke="none" 
	d="
M200.105560,122.935135 
	C203.341873,123.906425 206.525253,125.266808 209.832489,125.716614 
	C212.162689,126.033539 214.661102,125.113602 217.503906,124.795097 
	C213.347839,129.846451 202.182297,128.961212 197.260345,122.714348 
	C197.683594,122.142860 197.868759,122.044197 198.318665,122.060471 
	C199.090775,122.428658 199.598160,122.681892 200.105560,122.935135 
z"/>
<path fill="#E87B12" opacity="1.000000" stroke="none" 
	d="
M138.857712,109.024742 
	C140.668045,109.315338 142.478378,109.605942 144.288696,109.896538 
	C143.932297,111.370827 143.575897,112.845116 142.688019,114.658516 
	C141.167816,114.872353 140.179123,114.747093 139.084259,114.323929 
	C138.937973,112.358932 138.897842,110.691841 138.857712,109.024742 
z"/>
<path fill="#A1662D" opacity="1.000000" stroke="none" 
	d="
M138.335297,132.145996 
	C142.119080,132.675827 143.644333,130.629486 143.997299,127.153824 
	C144.145966,125.689827 144.249634,124.221275 144.535446,122.417130 
	C145.243912,122.066635 145.790665,122.053795 146.829407,122.268753 
	C147.795532,122.938835 148.269684,123.381111 148.743835,123.823395 
	C148.808990,124.995560 148.874161,126.167725 148.842728,127.772324 
	C147.484497,128.999359 145.628662,129.504089 145.073029,130.643097 
	C143.426361,134.018677 141.553772,135.111496 138.335297,132.145996 
z"/>
<path fill="#7F5A3A" opacity="1.000000" stroke="none" 
	d="
M161.242905,116.021484 
	C162.404160,112.965240 164.014694,113.978149 165.431915,115.838783 
	C166.738785,117.554543 167.832184,119.432892 169.287430,121.580948 
	C169.468262,122.425865 169.381287,122.929459 169.185364,123.669670 
	C168.193314,126.470551 167.310211,129.034821 166.147156,131.763214 
	C165.901764,128.969604 165.898163,126.010788 165.981033,123.054398 
	C166.073975,119.738029 164.889725,117.291718 161.242905,116.021484 
z"/>
<path fill="#7D7C7B" opacity="1.000000" stroke="none" 
	d="
M132.857605,98.718872 
	C126.838135,96.425331 120.618774,94.931801 113.623169,97.202072 
	C117.785583,92.690071 126.957283,93.239571 132.857605,98.718872 
z"/>
<path fill="#AAA7A5" opacity="1.000000" stroke="none" 
	d="
M198.053940,121.945526 
	C197.868759,122.044197 197.683594,122.142860 197.219025,122.386391 
	C195.807602,121.486656 194.675598,120.442062 193.336151,119.151764 
	C193.133408,114.705315 193.138107,110.504578 193.547241,106.529388 
	C192.821075,112.493073 195.190979,117.285873 198.053940,121.945526 
z"/>
<path fill="#ADACAB" opacity="1.000000" stroke="none" 
	d="
M138.764069,108.578453 
	C138.897842,110.691841 138.937973,112.358932 138.832275,114.586304 
	C138.140259,116.566650 137.594070,117.986732 137.047897,119.406807 
	C136.817947,119.529770 136.587997,119.652725 136.044373,120.009636 
	C135.324707,119.894142 134.918732,119.544701 134.626495,118.466339 
	C134.900192,113.118744 135.060165,108.500069 135.496460,103.971741 
	C136.611984,104.827682 137.451218,105.593269 138.290436,106.358849 
	C138.417099,106.949959 138.543762,107.541061 138.764069,108.578453 
z"/>
<path fill="#7D7C7B" opacity="1.000000" stroke="none" 
	d="
M105.315346,104.948029 
	C106.054771,109.557228 106.504143,114.365463 107.009201,119.554314 
	C102.640266,116.247330 101.862602,110.608879 105.315346,104.948029 
z"/>
<path fill="#A1662D" opacity="1.000000" stroke="none" 
	d="
M137.201462,119.739990 
	C137.594070,117.986732 138.140259,116.566650 138.938416,114.884201 
	C140.179123,114.747093 141.167816,114.872353 142.529800,114.967285 
	C143.535461,116.455460 144.167831,117.973961 144.707642,119.859100 
	C143.517792,119.195206 142.420502,118.164673 141.323212,117.134148 
	C140.494354,118.191315 139.665482,119.248474 138.689972,120.584778 
	C138.147247,120.600334 137.751129,120.336761 137.201462,119.739990 
z"/>
<path fill="#706F6F" opacity="1.000000" stroke="none" 
	d="
M218.711899,124.688065 
	C218.086212,124.586914 217.913284,124.439598 218.005890,123.830826 
	C218.473419,122.432640 218.733368,121.427872 218.993317,120.423096 
	C219.672821,119.802788 220.352325,119.182465 221.031830,118.562149 
	C221.579910,119.466797 222.804489,120.808983 222.553619,121.196877 
	C221.680740,122.546463 220.296509,123.565315 218.711899,124.688065 
z"/>
<path fill="#7D7C7B" opacity="1.000000" stroke="none" 
	d="
M111.980408,97.470627 
	C111.866737,98.345192 111.401649,99.179016 110.686073,100.539688 
	C109.835068,101.662216 109.234550,102.257896 108.634033,102.853577 
	C108.070503,102.961143 107.506966,103.068703 106.662994,103.238190 
	C108.131355,101.343376 109.880165,99.386635 111.980408,97.470627 
z"/>
<path fill="#7D7C7B" opacity="1.000000" stroke="none" 
	d="
M138.404327,106.001480 
	C137.451218,105.593269 136.611984,104.827682 135.371231,103.816010 
	C134.969696,103.569931 134.747879,103.237762 134.747879,103.237762 
	C134.794876,102.746681 134.841888,102.255592 134.929291,101.396317 
	C136.152542,102.566788 137.335373,104.105446 138.404327,106.001480 
z"/>
<path fill="#AAA7A5" opacity="1.000000" stroke="none" 
	d="
M210.631683,121.120316 
	C209.198929,123.634796 207.354477,123.392159 205.387573,120.901550 
	C206.922394,120.713348 208.574661,120.864029 210.631683,121.120316 
z"/>
<path fill="#7F7A74" opacity="1.000000" stroke="none" 
	d="
M148.749252,123.451279 
	C148.269684,123.381111 147.795532,122.938835 147.239197,122.255493 
	C147.441376,121.129593 147.725754,120.244774 148.081757,119.004730 
	C148.353806,120.126053 148.554245,121.602608 148.749252,123.451279 
z"/>
<path fill="#706F6F" opacity="1.000000" stroke="none" 
	d="
M204.990463,118.639404 
	C204.419601,117.859482 203.851318,116.704880 203.384079,115.274986 
	C203.987747,116.088043 204.490402,117.176384 204.990463,118.639404 
z"/>
<path fill="#7F5A3A" opacity="1.000000" stroke="none" 
	d="
M170.113571,129.255188 
	C170.880569,129.823029 171.668121,130.728531 172.646118,131.865967 
	C171.935745,131.262894 171.034943,130.427887 170.113571,129.255188 
z"/>
<path fill="#AAA7A5" opacity="1.000000" stroke="none" 
	d="
M218.990326,120.378357 
	C218.733368,121.427872 218.473419,122.432640 217.900269,123.692108 
	C217.838089,122.890854 218.089142,121.834900 218.621735,120.540619 
	C218.903275,120.302292 218.987320,120.333611 218.990326,120.378357 
z"/>
<path fill="#7F7A74" opacity="1.000000" stroke="none" 
	d="
M153.101593,79.328812 
	C152.744125,79.661057 152.249298,79.809853 151.365417,79.956238 
	C151.638977,79.684349 152.301620,79.414856 153.101593,79.328812 
z"/>
<path fill="#7D7C7B" opacity="1.000000" stroke="none" 
	d="
M110.179550,123.209885 
	C110.737595,123.263931 111.383286,123.616501 112.182899,124.202362 
	C111.646950,124.126564 110.957069,123.817490 110.179550,123.209885 
z"/>
<path fill="#706F6F" opacity="1.000000" stroke="none" 
	d="
M215.024841,119.128876 
	C214.693268,119.536583 214.230942,119.761993 213.378265,119.983009 
	C213.623291,119.634613 214.258713,119.290596 215.024841,119.128876 
z"/>
<path fill="#A1662D" opacity="1.000000" stroke="none" 
	d="
M154.347961,131.803253 
	C154.209595,131.208389 154.278732,130.351349 154.505478,129.213501 
	C154.627213,129.802139 154.591339,130.671600 154.347961,131.803253 
z"/>
<path fill="#7D7C7B" opacity="1.000000" stroke="none" 
	d="
M114.925858,125.609818 
	C115.087791,125.332062 115.405708,125.322334 116.200287,125.346725 
	C116.704208,125.713478 116.731468,126.046104 116.704132,126.623611 
	C116.126961,126.538277 115.604401,126.208061 114.925858,125.609818 
z"/>
<path fill="#A1662D" opacity="1.000000" stroke="none" 
	d="
M152.783096,132.782257 
	C152.899490,132.538132 153.135147,132.435471 153.741730,132.227524 
	C153.709244,132.389389 153.305786,132.656540 152.783096,132.782257 
z"/>
<path fill="#7D7C7B" opacity="1.000000" stroke="none" 
	d="
M116.743896,127.970322 
	C116.790443,127.942467 116.854088,128.098785 116.817398,128.117218 
	C116.780716,128.135651 116.697342,127.998177 116.743896,127.970322 
z"/>
<path fill="#A1662D" opacity="1.000000" stroke="none" 
	d="
M138.531769,129.171844 
	C138.646057,129.191544 138.685547,129.540466 138.607819,130.032379 
	C138.479416,129.950607 138.468201,129.725815 138.531769,129.171844 
z"/>
<path fill="#A1662D" opacity="1.000000" stroke="none" 
	d="
M138.051758,131.236588 
	C138.209122,131.224304 138.294464,131.486710 138.257370,131.618469 
	C138.220276,131.750229 137.806519,131.617233 137.806519,131.617233 
	C137.806519,131.617233 137.894379,131.248871 138.051758,131.236588 
z"/>
<path fill="#E1E1E1" opacity="1.000000" stroke="none" 
	d="
M85.981537,98.260040 
	C88.094353,100.038895 91.059288,101.634186 91.343338,103.614105 
	C92.109955,108.957466 91.876617,114.469772 91.679245,119.901932 
	C91.644630,120.854744 89.860291,121.743988 88.884026,122.662590 
	C87.961113,121.675400 86.445305,120.798218 86.237518,119.678345 
	C85.791550,117.274864 86.296761,114.700752 85.899094,112.280869 
	C85.455757,109.583023 85.176720,106.326706 83.525948,104.468674 
	C80.019432,100.521950 81.561928,99.196930 85.981537,98.260040 
z"/>
<path fill="#DCDCDC" opacity="1.000000" stroke="none" 
	d="
M71.112579,112.374664 
	C71.029510,115.146706 71.201744,117.502045 70.844826,119.774277 
	C70.684196,120.796928 69.467255,121.653656 68.729599,122.585663 
	C67.877548,121.720238 66.517029,120.972801 66.282928,119.963982 
	C65.842247,118.064827 66.367622,115.940605 65.922066,114.043671 
	C65.081635,110.465584 63.752068,107.005058 62.805622,103.447830 
	C62.451412,102.116516 62.598835,100.651749 62.517544,99.247826 
	C64.344025,99.252838 66.702118,98.524811 67.901474,99.394592 
	C72.219780,102.526253 72.569229,107.088455 71.112579,112.374664 
z"/>
<path fill="#E9E8E7" opacity="1.000000" stroke="none" 
	d="
M178.198685,102.106606 
	C175.307144,105.631683 172.218475,109.096497 174.501068,114.654289 
	C173.254700,116.383514 172.007675,117.661697 170.482544,119.153534 
	C168.960037,115.461281 163.560120,112.762352 166.770935,107.222244 
	C168.572708,104.182129 170.378860,101.480904 172.810745,98.684280 
	C175.917618,98.551529 178.350662,98.579300 178.198685,102.106606 
z"/>
<path fill="#ADACAB" opacity="1.000000" stroke="none" 
	d="
M180.630875,121.611481 
	C179.795959,123.131287 178.760071,124.353432 177.724182,125.575577 
	C177.314941,125.182732 176.905701,124.789886 176.496460,124.397034 
	C177.807602,123.369301 179.118744,122.341568 180.630875,121.611481 
z"/>
<path fill="#E9E8E7" opacity="1.000000" stroke="none" 
	d="
M23.994724,116.002548 
	C21.838301,114.370697 19.901436,112.122177 17.471973,111.257179 
	C14.152966,110.075470 10.149478,108.758438 10.698702,105.267929 
	C11.126213,102.550934 14.803462,100.314285 17.130930,97.957481 
	C17.522741,97.560730 18.394444,97.637886 19.433607,97.822296 
	C19.991014,98.856499 20.159233,99.564491 20.327450,100.272476 
	C19.963293,100.680290 19.599134,101.088104 18.743340,101.803673 
	C18.335823,103.497948 18.419945,104.884468 18.504065,106.270988 
	C20.199541,107.648857 21.895018,109.026726 23.829453,110.989273 
	C24.043846,113.050156 24.019283,114.526352 23.994724,116.002548 
z"/>
<path fill="#EBEBEB" opacity="1.000000" stroke="none" 
	d="
M24.011803,116.335747 
	C24.019283,114.526352 24.043846,113.050156 24.050430,111.233299 
	C27.716677,111.249878 31.824436,111.668587 31.788921,116.452789 
	C31.753538,121.219208 28.268614,123.472450 23.286680,123.812477 
	C22.350042,122.831238 21.917223,122.234566 21.484404,121.637886 
	C21.813145,121.163849 22.141884,120.689804 22.974522,120.037148 
	C23.654390,119.239998 23.830357,118.621468 24.006325,118.002937 
	C24.013844,117.558273 24.021362,117.113602 24.011803,116.335747 
z"/>
<path fill="#BDBDBD" opacity="1.000000" stroke="none" 
	d="
M19.186111,124.727577 
	C19.025936,124.765137 18.856874,124.856796 18.706913,124.832169 
	C16.371382,124.448547 14.032407,124.077362 11.720773,123.579933 
	C11.594675,123.552803 11.701558,122.442947 11.699991,121.837090 
	C13.915835,121.884132 16.131680,121.931175 18.758276,122.399147 
	C19.174723,123.455917 19.180416,124.091743 19.186111,124.727577 
z"/>
<path fill="#BDBDBD" opacity="1.000000" stroke="none" 
	d="
M20.736149,100.224182 
	C20.159233,99.564491 19.991014,98.856499 19.768909,97.793671 
	C22.503666,97.438835 25.292309,97.438835 28.080954,97.438835 
	C28.093033,98.095810 28.105112,98.752777 28.117191,99.409752 
	C25.793077,99.665131 23.468962,99.920517 20.736149,100.224182 
z"/>
<path fill="#E9E8E7" opacity="1.000000" stroke="none" 
	d="
M19.517691,124.753159 
	C19.180416,124.091743 19.174723,123.455917 19.155884,122.503036 
	C19.723608,122.017067 20.304476,121.848145 21.184874,121.658554 
	C21.917223,122.234566 22.350042,122.831238 22.905357,123.776245 
	C21.968327,124.342621 20.908798,124.560677 19.517691,124.753159 
z"/>
<path fill="#BDBDBD" opacity="1.000000" stroke="none" 
	d="
M18.608675,105.842422 
	C18.419945,104.884468 18.335823,103.497948 18.561485,102.007812 
	C18.818609,103.074081 18.765947,104.243973 18.608675,105.842422 
z"/>
<path fill="#E9E8E7" opacity="1.000000" stroke="none" 
	d="
M23.740913,118.147087 
	C23.830357,118.621468 23.654390,119.239998 23.250912,119.932953 
	C23.174103,119.435333 23.324802,118.863289 23.740913,118.147087 
z"/>
<path fill="#F1F1F0" opacity="1.000000" stroke="none" 
	d="
M134.413696,103.153366 
	C134.747879,103.237762 134.969696,103.569931 135.094910,103.725662 
	C135.060165,108.500069 134.900192,113.118744 134.598145,118.195312 
	C133.039474,117.886147 131.622833,117.119080 129.983032,115.728264 
	C129.839767,113.774948 130.022156,112.442184 129.980759,111.116402 
	C129.844513,106.751816 128.352493,103.117722 123.638695,102.167511 
	C119.538963,101.341080 115.988602,102.536293 113.968391,106.559288 
	C111.904282,110.669685 112.913811,114.879196 116.596565,118.031929 
	C116.721977,119.521721 116.847389,121.011505 116.883408,122.957573 
	C107.458298,120.091476 104.958275,114.011574 108.645813,103.240082 
	C109.234550,102.257896 109.835068,101.662216 110.646355,100.827377 
	C114.629356,99.702515 118.532341,97.762138 122.139305,98.209351 
	C126.256920,98.719864 130.110947,101.356354 134.413696,103.153366 
z"/>
<path fill="#61605E" opacity="1.000000" stroke="none" 
	d="
M126.623566,115.537079 
	C123.770798,115.802528 120.918037,116.067978 117.430099,116.040375 
	C114.249481,112.299377 114.234772,108.590958 117.483948,106.035080 
	C119.141052,104.731560 122.705002,104.258430 124.575722,105.151443 
	C128.487869,107.018936 128.409195,110.881828 127.036705,114.637169 
	C126.923759,114.946198 126.762413,115.237526 126.623566,115.537079 
z"/>
<path fill="#BDBDBD" opacity="1.000000" stroke="none" 
	d="
M126.991577,115.666473 
	C126.762413,115.237526 126.923759,114.946198 127.036705,114.637169 
	C128.409195,110.881828 128.487869,107.018936 124.575722,105.151443 
	C122.705002,104.258430 119.141052,104.731560 117.483948,106.035080 
	C114.234772,108.590958 114.249481,112.299377 117.048996,116.056450 
	C117.178520,116.751541 117.053986,117.137497 116.763000,117.777687 
	C112.913811,114.879196 111.904282,110.669685 113.968391,106.559288 
	C115.988602,102.536293 119.538963,101.341080 123.638695,102.167511 
	C128.352493,103.117722 129.844513,106.751816 129.980759,111.116402 
	C130.022156,112.442184 129.839767,113.774948 129.681976,115.536835 
	C128.855911,115.911385 128.107742,115.853630 126.991577,115.666473 
z"/>
<path fill="#D9D9D9" opacity="1.000000" stroke="none" 
	d="
M122.461548,123.128723 
	C124.344170,122.243507 126.140579,121.682190 127.979614,121.382591 
	C128.105133,121.362137 129.118073,123.797005 128.735870,124.237450 
	C127.759453,125.362656 126.263153,126.542358 124.903915,126.632637 
	C124.136841,126.683594 123.229576,124.623878 122.461548,123.128723 
z"/>
<path fill="#EBEBEB" opacity="1.000000" stroke="none" 
	d="
M198.318665,122.060471 
	C195.190979,117.285873 192.821075,112.493073 193.849213,106.308861 
	C196.280594,103.356606 198.814423,100.850426 201.680267,98.226700 
	C202.497574,98.753525 203.462677,99.457466 203.391266,100.032745 
	C202.879181,104.158417 201.794327,108.243294 201.627472,112.370880 
	C201.515610,115.138107 202.610886,117.954132 203.434174,120.983299 
	C202.717819,121.763992 201.733322,122.309715 200.427185,122.895287 
	C199.598160,122.681892 199.090775,122.428658 198.318665,122.060471 
z"/>
<path fill="#EBEBEB" opacity="1.000000" stroke="none" 
	d="
M223.653137,105.846130 
	C223.713470,106.269356 223.773819,106.692581 223.552460,107.622101 
	C222.845673,108.728821 222.420593,109.329247 221.995529,109.929665 
	C220.619446,109.911209 219.243362,109.892754 217.483734,109.531494 
	C216.629196,108.421677 216.158188,107.654671 215.687164,106.887665 
	C215.540253,106.092056 215.393341,105.296455 214.923096,103.822372 
	C214.352341,102.684555 214.104889,102.225204 214.040817,101.750748 
	C214.224197,101.735641 214.555099,101.575073 214.859985,101.336632 
	C216.108658,100.734657 217.052414,100.371124 218.220490,100.255447 
	C220.180908,102.284248 221.917023,104.065186 223.653137,105.846130 
z"/>
<path fill="#4E4E4E" opacity="1.000000" stroke="none" 
	d="
M213.857437,101.765862 
	C214.104889,102.225204 214.352341,102.684555 214.633118,103.535553 
	C212.463409,107.250572 209.041885,107.252678 205.169495,107.326370 
	C204.721466,107.405663 204.621368,107.370270 204.689056,106.861610 
	C204.672943,105.429443 204.589142,104.505928 204.505341,103.582420 
	C205.301544,102.853577 206.097748,102.124733 207.549377,101.455383 
	C209.133423,101.364128 210.062042,101.213387 210.990646,101.062645 
	C211.506729,101.156250 212.022812,101.249863 212.836792,101.515869 
	C213.134705,101.688271 213.517334,101.934456 213.517334,101.934456 
	C213.517334,101.934456 213.956848,101.809204 213.997604,101.811584 
	C214.038361,101.813965 213.857437,101.765862 213.857437,101.765862 
z"/>
<path fill="#AAA7A5" opacity="1.000000" stroke="none" 
	d="
M223.764786,105.570892 
	C221.917023,104.065186 220.180908,102.284248 218.249115,99.957382 
	C218.075043,99.213036 218.096649,99.014610 218.118240,98.816177 
	C220.037643,100.976006 221.957047,103.135834 223.764786,105.570892 
z"/>
<path fill="#AAA7A5" opacity="1.000000" stroke="none" 
	d="
M215.412506,107.050964 
	C216.158188,107.654671 216.629196,108.421677 217.074280,109.476997 
	C216.357132,109.774002 215.665939,109.782700 214.974731,109.791389 
	C215.029099,108.932350 215.083466,108.073311 215.412506,107.050964 
z"/>
<path fill="#BDBDBD" opacity="1.000000" stroke="none" 
	d="
M217.812988,98.673569 
	C218.096649,99.014610 218.075043,99.213036 218.024811,99.709534 
	C217.052414,100.371124 216.108658,100.734657 214.738861,101.467422 
	C214.312851,101.836647 213.956848,101.809204 213.956848,101.809204 
	C213.956848,101.809204 213.517334,101.934456 213.517334,101.934456 
	C213.517334,101.934456 213.134705,101.688271 213.097046,101.478767 
	C213.051743,100.243935 213.044098,99.218597 213.052704,97.693451 
	C214.548553,97.639412 216.028137,98.085190 217.812988,98.673569 
z"/>
<path fill="#AAA7A5" opacity="1.000000" stroke="none" 
	d="
M222.171875,110.109009 
	C222.420593,109.329247 222.845673,108.728821 223.595230,107.939865 
	C223.395905,108.597000 222.872070,109.442673 222.171875,110.109009 
z"/>
<path fill="#F3F2F1" opacity="1.000000" stroke="none" 
	d="
M151.321548,116.144211 
	C151.017456,106.547127 151.012970,97.076027 151.079880,87.605446 
	C151.097137,85.163719 150.690338,82.211395 154.439133,82.129868 
	C158.461502,82.042381 158.053436,85.098793 158.206787,87.766312 
	C158.642517,95.346107 159.228577,102.918678 159.541946,110.502914 
	C159.606201,112.057663 158.741821,113.650772 158.309875,115.563690 
	C157.230759,116.506836 156.147263,117.112480 154.688339,117.586563 
	C154.100464,117.240311 153.888031,117.025620 153.675598,116.810921 
	C152.999649,116.630745 152.323700,116.450569 151.321548,116.144211 
z"/>
<path fill="#AAA7A5" opacity="1.000000" stroke="none" 
	d="
M153.576660,116.918549 
	C153.888031,117.025620 154.100464,117.240311 154.222092,117.567459 
	C153.913422,117.462006 153.695572,117.244095 153.576660,116.918549 
z"/>
<path fill="#E1E1E1" opacity="1.000000" stroke="none" 
	d="
M155.995819,121.812256 
	C156.388702,121.335556 156.773880,121.189781 157.159073,121.044006 
	C157.216492,121.390953 157.273926,121.737892 157.331345,122.084839 
	C156.883606,122.104286 156.435867,122.123734 155.995819,121.812256 
z"/>
<path fill="#AAA7A5" opacity="1.000000" stroke="none" 
	d="
M178.511505,101.966400 
	C178.350662,98.579300 175.917618,98.551529 173.099625,98.487366 
	C174.853485,98.255531 176.944183,98.125206 179.034882,97.994888 
	C178.964691,99.271988 178.894516,100.549095 178.511505,101.966400 
z"/>
<path fill="#706F6F" opacity="1.000000" stroke="none" 
	d="
M204.281891,103.762909 
	C204.589142,104.505928 204.672943,105.429443 204.668091,106.812836 
	C204.405762,106.162949 204.232101,105.053169 204.281891,103.762909 
z"/>
<path fill="#706F6F" opacity="1.000000" stroke="none" 
	d="
M210.782562,100.871536 
	C210.062042,101.213387 209.133423,101.364128 207.865906,101.358864 
	C208.542816,101.028709 209.558640,100.854568 210.782562,100.871536 
z"/>
<path fill="#706F6F" opacity="1.000000" stroke="none" 
	d="
M213.997604,101.811584 
	C213.956848,101.809204 214.312851,101.836647 214.433975,101.705856 
	C214.555099,101.575073 214.224197,101.735641 214.040817,101.750748 
	C213.857437,101.765862 214.038361,101.813965 213.997604,101.811584 
z"/>
</svg>